<mxfile host="app.diagrams.net" modified="2022-08-16T07:18:41.918Z" agent="5.0 (Windows)" etag="DXnyodon2DuDPpy2qBCk" version="20.2.3" type="github">
  <diagram id="hH7eBS1ju-6TzeMscwvH" name="第 1 页">
    <mxGraphModel dx="1673" dy="875" grid="1" gridSize="10" guides="1" tooltips="1" connect="1" arrows="1" fold="1" page="1" pageScale="1" pageWidth="827" pageHeight="1169" math="0" shadow="0">
      <root>
        <mxCell id="0" />
        <mxCell id="1" parent="0" />
        <mxCell id="OBWaD9Oe62VBAYIFDRpy-4" style="edgeStyle=orthogonalEdgeStyle;curved=1;rounded=0;orthogonalLoop=1;jettySize=auto;html=1;fontFamily=Comic Sans MS;fontColor=#3333FF;" edge="1" parent="1" source="OBWaD9Oe62VBAYIFDRpy-2">
          <mxGeometry relative="1" as="geometry">
            <mxPoint x="200" y="160" as="targetPoint" />
          </mxGeometry>
        </mxCell>
        <mxCell id="OBWaD9Oe62VBAYIFDRpy-2" value="领取活动领域" style="text;html=1;align=center;verticalAlign=middle;resizable=0;points=[];autosize=1;strokeColor=#6c8ebf;fillColor=#dae8fc;fontFamily=Comic Sans MS;" vertex="1" parent="1">
          <mxGeometry x="340" y="45" width="100" height="30" as="geometry" />
        </mxCell>
        <mxCell id="OBWaD9Oe62VBAYIFDRpy-44" style="edgeStyle=orthogonalEdgeStyle;curved=1;rounded=0;orthogonalLoop=1;jettySize=auto;html=1;fontFamily=Comic Sans MS;fontColor=#3333FF;" edge="1" parent="1" source="OBWaD9Oe62VBAYIFDRpy-5">
          <mxGeometry relative="1" as="geometry">
            <mxPoint x="180" y="480" as="targetPoint" />
          </mxGeometry>
        </mxCell>
        <mxCell id="OBWaD9Oe62VBAYIFDRpy-56" style="edgeStyle=orthogonalEdgeStyle;curved=1;rounded=0;orthogonalLoop=1;jettySize=auto;html=1;fontFamily=Comic Sans MS;fontColor=#3333FF;" edge="1" parent="1" source="OBWaD9Oe62VBAYIFDRpy-5">
          <mxGeometry relative="1" as="geometry">
            <mxPoint x="280" y="175" as="targetPoint" />
          </mxGeometry>
        </mxCell>
        <mxCell id="OBWaD9Oe62VBAYIFDRpy-5" value="查询活动账单" style="text;html=1;align=center;verticalAlign=middle;resizable=0;points=[];autosize=1;strokeColor=#6c8ebf;fillColor=#dae8fc;fontFamily=Comic Sans MS;" vertex="1" parent="1">
          <mxGeometry x="130" y="160" width="100" height="30" as="geometry" />
        </mxCell>
        <mxCell id="OBWaD9Oe62VBAYIFDRpy-36" value="PartakeReq" style="swimlane;childLayout=stackLayout;horizontal=1;startSize=30;horizontalStack=0;rounded=1;fontSize=14;fontStyle=0;strokeWidth=2;resizeParent=0;resizeLast=1;shadow=0;dashed=0;align=center;fontFamily=Comic Sans MS;fontColor=#3333FF;" vertex="1" parent="1">
          <mxGeometry x="290" y="120" width="200" height="120" as="geometry" />
        </mxCell>
        <mxCell id="OBWaD9Oe62VBAYIFDRpy-37" value="/** 用户ID */&#xa;private String uId;&#xa;/** 活动ID */&#xa;private Long activityId;&#xa;/** 活动领取时间 */&#xa;private Date partakeDate;" style="align=left;strokeColor=none;fillColor=none;spacingLeft=4;fontSize=12;verticalAlign=top;resizable=0;rotatable=0;part=1;fontFamily=Comic Sans MS;fontColor=#3333FF;" vertex="1" parent="OBWaD9Oe62VBAYIFDRpy-36">
          <mxGeometry y="30" width="200" height="90" as="geometry" />
        </mxCell>
        <mxCell id="OBWaD9Oe62VBAYIFDRpy-42" value="ActivityBillVO" style="swimlane;childLayout=stackLayout;horizontal=1;startSize=30;horizontalStack=0;rounded=1;fontSize=14;fontStyle=0;strokeWidth=2;resizeParent=0;resizeLast=1;shadow=0;dashed=0;align=center;fontFamily=Comic Sans MS;fontColor=#3333FF;" vertex="1" parent="1">
          <mxGeometry x="520" y="120" width="220" height="350" as="geometry" />
        </mxCell>
        <mxCell id="OBWaD9Oe62VBAYIFDRpy-43" value="private String uId;&#xa;/** 活动ID */&#xa;private Long activityId;&#xa;/** 活动名称 */&#xa;private String activityName;&#xa;/** 开始时间 */&#xa;private Date beginDateTime;&#xa;/** 结束时间 */&#xa;private Date endDateTime;&#xa;/** 库存剩余 */&#xa;private Integer stockSurplusCount;&#xa;/**&#xa; * 活动状态：1编辑、2提审、3撤审、4通过、5运行(审核通过后worker扫描状态)、6拒绝、7关闭、8开启&#xa; * Constants.ActivityState&#xa; */&#xa;private Integer state;&#xa;/** 策略ID */&#xa;private Long strategyId;&#xa;/** 每人可参与次数 */&#xa;private Integer takeCount;&#xa;/** 已领取次数 */&#xa;private Integer userTakeLeftCount;" style="align=left;strokeColor=none;fillColor=none;spacingLeft=4;fontSize=12;verticalAlign=top;resizable=0;rotatable=0;part=1;fontFamily=Comic Sans MS;fontColor=#3333FF;" vertex="1" parent="OBWaD9Oe62VBAYIFDRpy-42">
          <mxGeometry y="30" width="220" height="320" as="geometry" />
        </mxCell>
        <mxCell id="OBWaD9Oe62VBAYIFDRpy-50" style="edgeStyle=orthogonalEdgeStyle;curved=1;rounded=0;orthogonalLoop=1;jettySize=auto;html=1;fontFamily=Comic Sans MS;fontColor=#3333FF;" edge="1" parent="1" source="OBWaD9Oe62VBAYIFDRpy-45">
          <mxGeometry relative="1" as="geometry">
            <mxPoint x="400" y="420" as="targetPoint" />
          </mxGeometry>
        </mxCell>
        <mxCell id="OBWaD9Oe62VBAYIFDRpy-52" style="edgeStyle=orthogonalEdgeStyle;curved=1;rounded=0;orthogonalLoop=1;jettySize=auto;html=1;fontFamily=Comic Sans MS;fontColor=#3333FF;" edge="1" parent="1" source="OBWaD9Oe62VBAYIFDRpy-45">
          <mxGeometry relative="1" as="geometry">
            <mxPoint x="180" y="630" as="targetPoint" />
          </mxGeometry>
        </mxCell>
        <mxCell id="OBWaD9Oe62VBAYIFDRpy-45" value="//活动信息校验处理【活动库存、状态、日期、个人参与次数】" style="text;html=1;align=center;verticalAlign=middle;resizable=0;points=[];autosize=1;strokeColor=#6c8ebf;fillColor=#dae8fc;fontFamily=Comic Sans MS;" vertex="1" parent="1">
          <mxGeometry y="480" width="360" height="30" as="geometry" />
        </mxCell>
        <mxCell id="OBWaD9Oe62VBAYIFDRpy-46" value="Result" style="swimlane;fontStyle=0;childLayout=stackLayout;horizontal=1;startSize=26;horizontalStack=0;resizeParent=1;resizeParentMax=0;resizeLast=0;collapsible=1;marginBottom=0;align=center;fontSize=14;labelBackgroundColor=#FFFFFF;fontFamily=Comic Sans MS;fontColor=#3333FF;" vertex="1" parent="1">
          <mxGeometry x="300" y="330" width="160" height="80" as="geometry" />
        </mxCell>
        <mxCell id="OBWaD9Oe62VBAYIFDRpy-47" value="code" style="text;strokeColor=none;fillColor=none;spacingLeft=4;spacingRight=4;overflow=hidden;rotatable=0;points=[[0,0.5],[1,0.5]];portConstraint=eastwest;fontSize=12;labelBackgroundColor=#FFFFFF;fontFamily=Comic Sans MS;fontColor=#3333FF;" vertex="1" parent="OBWaD9Oe62VBAYIFDRpy-46">
          <mxGeometry y="26" width="160" height="30" as="geometry" />
        </mxCell>
        <mxCell id="OBWaD9Oe62VBAYIFDRpy-48" value="info" style="text;strokeColor=none;fillColor=none;spacingLeft=4;spacingRight=4;overflow=hidden;rotatable=0;points=[[0,0.5],[1,0.5]];portConstraint=eastwest;fontSize=12;labelBackgroundColor=#FFFFFF;fontFamily=Comic Sans MS;fontColor=#3333FF;" vertex="1" parent="OBWaD9Oe62VBAYIFDRpy-46">
          <mxGeometry y="56" width="160" height="24" as="geometry" />
        </mxCell>
        <mxCell id="OBWaD9Oe62VBAYIFDRpy-51" value="res" style="text;html=1;align=center;verticalAlign=middle;resizable=0;points=[];autosize=1;strokeColor=none;fillColor=none;fontFamily=Comic Sans MS;fontColor=#3333FF;" vertex="1" parent="1">
          <mxGeometry x="390" y="445" width="40" height="30" as="geometry" />
        </mxCell>
        <mxCell id="OBWaD9Oe62VBAYIFDRpy-58" style="edgeStyle=orthogonalEdgeStyle;curved=1;rounded=0;orthogonalLoop=1;jettySize=auto;html=1;fontFamily=Comic Sans MS;fontColor=#3333FF;" edge="1" parent="1" source="OBWaD9Oe62VBAYIFDRpy-53">
          <mxGeometry relative="1" as="geometry">
            <mxPoint x="180" y="780" as="targetPoint" />
          </mxGeometry>
        </mxCell>
        <mxCell id="OBWaD9Oe62VBAYIFDRpy-59" style="edgeStyle=orthogonalEdgeStyle;curved=1;rounded=0;orthogonalLoop=1;jettySize=auto;html=1;entryX=-0.01;entryY=0.156;entryDx=0;entryDy=0;entryPerimeter=0;fontFamily=Comic Sans MS;fontColor=#3333FF;" edge="1" parent="1" source="OBWaD9Oe62VBAYIFDRpy-53" target="OBWaD9Oe62VBAYIFDRpy-55">
          <mxGeometry relative="1" as="geometry" />
        </mxCell>
        <mxCell id="OBWaD9Oe62VBAYIFDRpy-53" value="//扣减活动内存" style="text;html=1;align=center;verticalAlign=middle;resizable=0;points=[];autosize=1;strokeColor=#6c8ebf;fillColor=#dae8fc;fontFamily=Comic Sans MS;" vertex="1" parent="1">
          <mxGeometry x="125" y="630" width="110" height="30" as="geometry" />
        </mxCell>
        <mxCell id="OBWaD9Oe62VBAYIFDRpy-54" value="PartakeReq" style="swimlane;childLayout=stackLayout;horizontal=1;startSize=30;horizontalStack=0;rounded=1;fontSize=14;fontStyle=0;strokeWidth=2;resizeParent=0;resizeLast=1;shadow=0;dashed=0;align=center;fontFamily=Comic Sans MS;fontColor=#3333FF;" vertex="1" parent="1">
          <mxGeometry x="270" y="600" width="200" height="120" as="geometry" />
        </mxCell>
        <mxCell id="OBWaD9Oe62VBAYIFDRpy-55" value="/** 用户ID */&#xa;private String uId;&#xa;/** 活动ID */&#xa;private Long activityId;&#xa;/** 活动领取时间 */&#xa;private Date partakeDate;" style="align=left;strokeColor=none;fillColor=none;spacingLeft=4;fontSize=12;verticalAlign=top;resizable=0;rotatable=0;part=1;fontFamily=Comic Sans MS;fontColor=#3333FF;" vertex="1" parent="OBWaD9Oe62VBAYIFDRpy-54">
          <mxGeometry y="30" width="200" height="90" as="geometry" />
        </mxCell>
        <mxCell id="OBWaD9Oe62VBAYIFDRpy-57" style="edgeStyle=orthogonalEdgeStyle;curved=1;rounded=0;orthogonalLoop=1;jettySize=auto;html=1;exitX=1;exitY=0.25;exitDx=0;exitDy=0;entryX=0;entryY=0.072;entryDx=0;entryDy=0;entryPerimeter=0;fontFamily=Comic Sans MS;fontColor=#3333FF;" edge="1" parent="1" source="OBWaD9Oe62VBAYIFDRpy-37" target="OBWaD9Oe62VBAYIFDRpy-43">
          <mxGeometry relative="1" as="geometry" />
        </mxCell>
        <mxCell id="OBWaD9Oe62VBAYIFDRpy-60" value="//领取活动信息，个人用户把活动信息写入到用户表" style="text;html=1;align=center;verticalAlign=middle;resizable=0;points=[];autosize=1;strokeColor=#6c8ebf;fillColor=#dae8fc;fontFamily=Comic Sans MS;" vertex="1" parent="1">
          <mxGeometry x="25" y="780" width="300" height="30" as="geometry" />
        </mxCell>
      </root>
    </mxGraphModel>
  </diagram>
</mxfile>
